<mxfile host="65bd71144e">
    <diagram id="GM0jyBaLrXvVLdkNbaAq" name="Page-1">
        <mxGraphModel dx="631" dy="271" grid="1" gridSize="10" guides="1" tooltips="1" connect="1" arrows="1" fold="1" page="1" pageScale="1" pageWidth="850" pageHeight="1100" math="0" shadow="0">
            <root>
                <mxCell id="0"/>
                <mxCell id="1" parent="0"/>
                <mxCell id="2" value="Job Manager" style="rounded=0;whiteSpace=wrap;html=1;fillColor=#0050ef;strokeColor=#001DBC;shadow=1;verticalAlign=top;fontColor=#ffffff;" vertex="1" parent="1">
                    <mxGeometry y="140" width="170" height="130" as="geometry"/>
                </mxCell>
                <mxCell id="3" value="Task Manager" style="rounded=0;whiteSpace=wrap;html=1;fillColor=#0050ef;strokeColor=#001DBC;shadow=1;verticalAlign=top;fontColor=#ffffff;" vertex="1" parent="1">
                    <mxGeometry x="240" y="80" width="210" height="120" as="geometry"/>
                </mxCell>
                <mxCell id="4" value="Task slot" style="rounded=0;whiteSpace=wrap;html=1;shadow=0;fontSize=8;verticalAlign=top;" vertex="1" parent="1">
                    <mxGeometry x="250" y="110" width="50" height="70" as="geometry"/>
                </mxCell>
                <mxCell id="5" value="Task slot" style="rounded=0;whiteSpace=wrap;html=1;shadow=0;fontSize=8;verticalAlign=top;" vertex="1" parent="1">
                    <mxGeometry x="320" y="110" width="50" height="70" as="geometry"/>
                </mxCell>
                <mxCell id="6" value="Task slot" style="rounded=0;whiteSpace=wrap;html=1;shadow=0;fontSize=8;verticalAlign=top;" vertex="1" parent="1">
                    <mxGeometry x="390" y="110" width="50" height="70" as="geometry"/>
                </mxCell>
                <mxCell id="7" value="Task" style="ellipse;whiteSpace=wrap;html=1;aspect=fixed;shadow=0;fontSize=8;fillColor=#ffe6cc;strokeColor=none;" vertex="1" parent="1">
                    <mxGeometry x="260" y="140" width="30" height="30" as="geometry"/>
                </mxCell>
                <mxCell id="8" value="Task" style="ellipse;whiteSpace=wrap;html=1;aspect=fixed;shadow=0;fontSize=8;fillColor=#ffe6cc;strokeColor=none;" vertex="1" parent="1">
                    <mxGeometry x="330" y="140" width="30" height="30" as="geometry"/>
                </mxCell>
                <mxCell id="9" value="Task" style="ellipse;whiteSpace=wrap;html=1;aspect=fixed;shadow=0;fontSize=8;fillColor=#ffe6cc;strokeColor=none;" vertex="1" parent="1">
                    <mxGeometry x="400" y="140" width="30" height="30" as="geometry"/>
                </mxCell>
                <mxCell id="10" value="Task Manager" style="rounded=0;whiteSpace=wrap;html=1;fillColor=#0050ef;strokeColor=#001DBC;shadow=1;verticalAlign=top;fontColor=#ffffff;" vertex="1" parent="1">
                    <mxGeometry x="240" y="320" width="210" height="120" as="geometry"/>
                </mxCell>
                <mxCell id="11" value="Task slot" style="rounded=0;whiteSpace=wrap;html=1;shadow=0;fontSize=8;verticalAlign=top;" vertex="1" parent="1">
                    <mxGeometry x="250" y="350" width="50" height="70" as="geometry"/>
                </mxCell>
                <mxCell id="12" value="Task slot" style="rounded=0;whiteSpace=wrap;html=1;shadow=0;fontSize=8;verticalAlign=top;" vertex="1" parent="1">
                    <mxGeometry x="320" y="350" width="50" height="70" as="geometry"/>
                </mxCell>
                <mxCell id="13" value="Task slot" style="rounded=0;whiteSpace=wrap;html=1;shadow=0;fontSize=8;verticalAlign=top;" vertex="1" parent="1">
                    <mxGeometry x="390" y="350" width="50" height="70" as="geometry"/>
                </mxCell>
                <mxCell id="14" value="Task" style="ellipse;whiteSpace=wrap;html=1;aspect=fixed;shadow=0;fontSize=8;fillColor=#ffe6cc;strokeColor=none;" vertex="1" parent="1">
                    <mxGeometry x="260" y="380" width="30" height="30" as="geometry"/>
                </mxCell>
                <mxCell id="15" value="Task" style="ellipse;whiteSpace=wrap;html=1;aspect=fixed;shadow=0;fontSize=8;fillColor=#ffe6cc;strokeColor=none;" vertex="1" parent="1">
                    <mxGeometry x="330" y="380" width="30" height="30" as="geometry"/>
                </mxCell>
                <mxCell id="16" value="Task" style="ellipse;whiteSpace=wrap;html=1;aspect=fixed;shadow=0;fontSize=8;fillColor=#ffe6cc;strokeColor=none;" vertex="1" parent="1">
                    <mxGeometry x="400" y="380" width="30" height="30" as="geometry"/>
                </mxCell>
                <mxCell id="17" value="Scheduler" style="rounded=0;whiteSpace=wrap;html=1;shadow=0;fontSize=8;verticalAlign=top;" vertex="1" parent="1">
                    <mxGeometry x="10" y="170" width="140" height="30" as="geometry"/>
                </mxCell>
                <mxCell id="18" value="Checkpoint Coordinator" style="rounded=0;whiteSpace=wrap;html=1;shadow=0;fontSize=8;verticalAlign=top;" vertex="1" parent="1">
                    <mxGeometry x="10" y="210" width="140" height="30" as="geometry"/>
                </mxCell>
                <mxCell id="19" value="" style="shape=flexArrow;endArrow=classic;startArrow=classic;html=1;fontSize=8;entryX=0.5;entryY=1;entryDx=0;entryDy=0;" edge="1" parent="1" source="10" target="3">
                    <mxGeometry width="100" height="100" relative="1" as="geometry">
                        <mxPoint x="170" y="380" as="sourcePoint"/>
                        <mxPoint x="340" y="210" as="targetPoint"/>
                    </mxGeometry>
                </mxCell>
                <mxCell id="20" value="Data stream" style="text;html=1;align=center;verticalAlign=middle;resizable=0;points=[];autosize=1;strokeColor=none;fillColor=none;fontSize=12;" vertex="1" parent="1">
                    <mxGeometry x="350" y="260" width="80" height="20" as="geometry"/>
                </mxCell>
            </root>
        </mxGraphModel>
    </diagram>
</mxfile>